<?xml version="1.0" encoding="UTF-8" standalone="no"?>
<!-- Created with Inkscape (http://www.inkscape.org/) -->

<svg
   width="188.64793mm"
   height="31.749998mm"
   viewBox="0 0 188.64794 31.749998"
   version="1.1"
   id="svg5"
   sodipodi:docname="AIR_GON.svg"
   inkscape:version="1.2.2 (732a01da63, 2022-12-09)"
   xmlns:inkscape="http://www.inkscape.org/namespaces/inkscape"
   xmlns:sodipodi="http://sodipodi.sourceforge.net/DTD/sodipodi-0.dtd"
   xmlns="http://www.w3.org/2000/svg"
   xmlns:svg="http://www.w3.org/2000/svg">
  <sodipodi:namedview
     id="namedview7"
     pagecolor="#ffffff"
     bordercolor="#000000"
     borderopacity="0.25"
     inkscape:showpageshadow="2"
     inkscape:pageopacity="0"
     inkscape:pagecheckerboard="true"
     inkscape:deskcolor="#d1d1d1"
     inkscape:document-units="mm"
     showgrid="false"
     inkscape:zoom="1.447575"
     inkscape:cx="404.12415"
     inkscape:cy="61.482136"
     inkscape:window-width="1920"
     inkscape:window-height="1009"
     inkscape:window-x="-8"
     inkscape:window-y="549"
     inkscape:window-maximized="1"
     inkscape:current-layer="layer1" />
  <defs
     id="defs2" />
  <g
     inkscape:label="Ebene 1"
     inkscape:groupmode="layer"
     id="layer1"
     transform="translate(-11.353086,-132.74224)">
    <g
       id="g6267"
       inkscape:export-filename="g6267.png"
       inkscape:export-xdpi="97.003807"
       inkscape:export-ydpi="97.003807">
      <rect
         style="fill:#ff0000;fill-opacity:1;stroke:none;stroke-width:0.458;stroke-dasharray:none;stroke-opacity:1"
         id="rect1001"
         width="171.97917"
         height="21.166666"
         x="19.010414"
         y="137.91667" />
      <g
         id="g4110"
         transform="matrix(1.0072298,0,0,1.0074402,-0.3107983,59.617082)">
        <path
           style="fill:#000000;fill-opacity:1;stroke-width:0.605999"
           id="path358"
           d="m 14.774336,87.623831 c 1.396773,0.110604 2.801459,0.130033 4.202113,0.180121 1.841906,0.07929 3.681722,0.197614 5.520653,0.327895 0.458233,0.01389 0.970348,0.08425 1.40897,-0.106211 0.398349,-0.172977 0.627659,-0.534017 0.867745,-0.871271 0.889029,-1.128392 1.835306,-2.213255 2.7892,-3.287395 0.57512,-0.63692 1.171218,-1.256625 1.731024,-1.907315 1.010007,-1.173985 -0.249225,0.237824 0.732485,-0.853355 0.274638,-0.282369 0.526267,-0.601419 0.846397,-0.836861 0.03235,-0.02379 0.244102,-0.197906 0.331266,-0.09023 0.04252,0.05253 0.03108,0.131543 0.04661,0.197315 -4.612378,-2.632723 -3.591346,-2.812362 -2.968588,-1.393301 0.09483,0.216096 0.172612,0.439317 0.254214,0.660747 0.329655,0.894537 0.633807,1.798955 0.956017,2.696231 0.809156,2.338644 1.848757,4.582673 2.936351,6.801831 0.838544,1.675445 1.688205,3.34449 2.585098,4.989484 0.501573,0.898284 1.009502,1.792644 1.488829,2.703039 0.166174,0.372406 0.37085,0.724791 0.55984,1.084797 0.427561,1.023609 3.109568,3.232938 3.75812,1.822495 0.07341,-0.159658 0.06984,-0.31046 0.08573,-0.482942 0.02387,-0.989354 0.0052,-1.97976 -0.01048,-2.96922 -0.02363,-1.190847 0.0024,-2.382083 0.113141,-3.568158 0.04816,-0.577691 0.184378,-1.142105 0.294214,-1.709938 0.08358,-0.645546 0.155567,-1.293297 0.216831,-1.941542 0.04831,-0.657444 0.08746,-1.315746 0.15806,-1.971349 0.04215,-0.160695 0.05761,-0.911119 0.254815,-0.970296 0.03581,-0.01074 0.07473,0.0024 0.112098,0.0034 0.931262,0.07854 1.867826,0.120725 2.801943,0.166209 0.732256,0.04344 1.464535,0.09009 2.197087,0.128167 0.362429,0.01884 0.791951,0.05631 1.155716,-0.02233 0.146743,-0.03172 0.281408,-0.104733 0.422111,-0.157099 0.111768,-0.110485 0.259516,-0.193781 0.335303,-0.331459 0.163524,-0.297059 0.374119,-1.258811 0.439087,-1.552425 0.195871,-0.885221 0.376489,-1.774817 0.564944,-2.661726 0.152252,-0.678657 0.276143,-1.363732 0.429596,-2.042115 0.06739,-0.297916 0.129344,-0.604711 0.274203,-0.875639 -0.269277,1.444347 0.05941,-0.0016 -3.396768,-1.646237 -0.08325,-0.03961 0.06205,0.174233 0.08091,0.264477 0.100344,0.480129 0.125278,0.989828 0.181237,1.475947 0.246357,1.962753 0.28856,3.939651 0.283493,5.915051 -0.02903,2.167689 -0.04571,4.335629 -0.09414,6.503 -0.0728,1.279007 0.102087,2.546596 0.244713,3.813326 0.03548,0.423527 0.07896,0.843984 0.163097,1.260584 0.06504,0.287692 0.07018,0.583697 0.07412,0.877231 -0.0016,1.679715 0.576718,1.099547 3.577556,2.134042 0.124314,0.04285 -0.0044,-0.262954 -0.0066,-0.39443 -0.08217,-2.084332 -0.30585,-4.158364 -0.468571,-6.236999 -0.130067,-1.68497 -0.176139,-3.374777 -0.166175,-5.064289 0.04485,-0.257485 -0.06118,-0.702435 0.09266,-0.94383 0.06616,-0.103812 0.754954,-0.116401 0.757682,-0.116628 1.685785,-0.146564 3.377856,-0.19244 5.06835,-0.251278 0.557057,-0.06536 1.412537,0.08001 1.762932,-0.501578 0.209296,-0.347388 0.200179,-0.712298 0.245306,-1.102247 0.0078,-0.268538 0.02093,-0.536979 0.02342,-0.805621 0.0063,-0.681091 -0.01035,-1.362205 -0.0127,-2.043319 -0.0035,-1.013042 1.11e-4,-2.025973 -0.0064,-3.039007 0.0016,-0.687821 -0.0098,-1.375529 -0.01609,-2.063258 -5.3e-4,-0.05377 -0.01389,-0.581869 0.03116,-0.645372 0.02265,-0.03194 0.06061,0.0496 0.09092,0.0744 0.08514,0.04427 0.166552,0.09663 0.255436,0.132815 0.13665,0.05563 1.20168,0.410909 1.223357,0.417986 0.976299,0.318741 1.959851,0.615392 2.938608,0.926481 1.172072,0.331542 2.302923,0.792411 3.466211,1.150313 0.440796,0.135618 1.038735,0.283522 1.485519,0.398211 0.324879,0.08073 0.925989,0.222872 1.259607,0.331296 0.142383,0.04627 0.548042,0.237683 0.418991,0.161787 -1.01864,-0.57087 -2.037281,-1.141738 -3.055924,-1.712605 0.04757,0.0336 0.10337,0.05786 0.142709,0.100808 0.02725,0.02975 0.03361,0.07335 0.05041,0.110022 -0.02011,0.07812 -0.03038,0.159457 -0.06034,0.234352 -0.08783,0.219607 -0.336211,0.629251 -0.443817,0.801921 -0.341673,0.548256 -0.717291,1.07492 -1.087271,1.604113 -0.612505,0.849402 -1.193586,1.720479 -1.746335,2.609749 -0.522451,0.801973 -1.110781,1.557422 -1.668433,2.334466 -0.221634,0.424715 -0.685686,0.707877 -0.867225,1.156769 -0.03314,0.08195 -0.04597,0.17072 -0.06895,0.25608 0.02249,0.147513 0.02856,0.298492 0.0675,0.442542 0.08443,0.312335 0.402484,1.057336 0.516495,1.316464 0.433012,0.984144 0.939118,1.925171 1.448454,2.87121 0.955003,1.752449 2.149403,3.350133 3.370035,4.922253 1.453763,1.902357 1.617533,1.781775 4.583043,3.338137 0.06314,0.0331 0.12504,-0.0686 0.187558,-0.1029 0.05208,-0.0823 0.117925,-0.157345 0.156221,-0.246885 0.139917,-0.327125 0.0779,-0.76354 0.07342,-1.102196 -0.0098,-0.73941 -0.0065,-0.557879 0.0051,-1.360667 0.13191,-1.823964 0.311237,-3.64603 0.545565,-5.460063 0.144182,-1.045025 0.33981,-2.081861 0.476615,-3.127913 0.05902,-0.430733 0.04034,-0.865555 0.07606,-1.297582 0.07355,-0.530995 0.254019,-0.443148 0.739024,-0.457796 1.451107,-0.04466 2.901815,0.07069 4.349025,0.164238 0.963602,0.03259 1.917353,0.162689 2.873393,0.274942 0.13843,0.01431 0.310238,0.04497 0.450311,0.01019 0.416427,-0.103441 0.990253,-0.677548 1.298675,-0.953865 1.216499,-1.106752 2.438101,-2.210993 3.609083,-3.366193 1.11378,-1.142529 2.232594,-2.278417 3.380928,-3.386315 0.203372,-0.123764 0.423974,-0.539433 0.717373,-0.500655 0.125738,0.01662 0.389215,0.320267 0.277365,0.260466 -1.020029,-0.545367 -2.010529,-1.144257 -3.015795,-1.716384 1.197833,0.893424 2.317758,1.884019 3.445,2.863213 0.86987,0.76604 1.775494,1.492808 2.717842,2.167898 0.312417,0.24435 0.667838,0.421891 0.995019,0.643435 0.146394,0.08743 0.289829,0.180773 0.414364,0.29706 0,0 3.677533,1.437728 3.677533,1.437728 v 0 c -0.16308,-0.0698 -0.28069,-0.209048 -0.42557,-0.313378 -0.15436,-0.08825 -0.29213,-0.196038 -0.445324,-0.286226 -0.126863,-0.07469 -0.263502,-0.132173 -0.388951,-0.209209 -0.08215,-0.05044 -0.158554,-0.109699 -0.237831,-0.16455 -1.039091,-0.650846 -2.010019,-1.413613 -2.94313,-2.206461 -1.075603,-0.938977 -2.136537,-1.894316 -3.232121,-2.809925 -1.200086,-0.716145 -2.383843,-1.460391 -3.600259,-2.148435 -0.161997,-0.09163 -0.350634,-0.04589 -0.499767,0.03314 -0.291851,0.154665 -0.468161,0.454139 -0.687416,0.686607 -1.015349,1.206469 -2.09477,2.35766 -3.217423,3.464849 -1.197348,1.136054 -2.435384,2.234443 -3.73779,3.249051 -0.32978,0.242912 -0.668888,0.539996 -1.07746,0.6443 -0.19448,0.04965 -0.402445,-0.01405 -0.597718,-0.01183 -0.899501,-0.06748 -1.799862,-0.10193 -2.701449,-0.130151 -1.510281,-0.07982 -3.019065,-0.213815 -4.531608,-0.234193 -0.131461,0.01474 -0.265311,0.01521 -0.394385,0.04417 -0.434409,0.0975 -0.624774,0.437536 -0.673307,0.849873 -0.04439,0.438465 -0.06545,0.873549 -0.05545,1.31485 -0.02708,1.081841 -0.119534,2.161005 -0.232304,3.23697 -0.205989,1.815606 -0.413147,3.630917 -0.628677,5.445395 -0.05207,0.58343 -0.09174,1.16857 -0.147823,1.751592 -0.01318,0.136954 -0.04738,0.271619 -0.05607,0.40893 -7.94e-4,0.01334 0.01098,-0.02439 0.01646,-0.03658 -0.403129,-1.245981 -0.03213,-0.04481 3.160845,1.808681 0.0836,0.04853 -0.161351,-0.107217 -0.2355,-0.169238 -0.403686,-0.337651 -0.731827,-0.755745 -1.075542,-1.150406 -1.297279,-1.554964 -2.570546,-3.139077 -3.544075,-4.924221 -0.714881,-1.356992 -1.42375,-2.731611 -1.793661,-4.230433 0.0035,-0.0504 -0.0039,-0.102794 0.01058,-0.15121 0.02614,-0.08755 0.16033,-0.287369 0.205291,-0.353166 0.186385,-0.272748 0.394761,-0.53 0.572569,-0.808775 0.529756,-0.79974 1.087794,-1.58028 1.637347,-2.366431 0.578953,-0.865804 1.097076,-1.771113 1.688703,-2.629128 0.367131,-0.534812 0.734804,-1.068728 1.120905,-1.590151 0.246329,-0.332663 0.386037,-0.478435 0.57736,-0.825433 0.06083,-0.110318 0.106905,-0.22814 0.160359,-0.34221 0.02151,-0.139755 0.131569,-0.469596 -0.06286,-0.590256 -1.164487,-0.722683 -2.370011,-1.378051 -3.576982,-2.027301 -0.11672,-0.06279 -0.25536,-0.07123 -0.383944,-0.103352 -0.39742,-0.09929 -0.798986,-0.181501 -1.195695,-0.283765 -1.63054,-0.43652 -3.222342,-0.993624 -4.83716,-1.483805 -1.011634,-0.322223 -2.020639,-0.647192 -3.02088,-1.003575 -0.193416,-0.06892 -1.138859,-0.433874 -1.419521,-0.470683 -0.151011,-0.01982 -0.303512,0.0258 -0.455269,0.03871 -0.0854,0.09183 -0.205938,0.160602 -0.256206,0.275489 -0.04332,0.09901 0.04534,0.70349 0.04992,0.741281 0.08549,0.705302 0.142682,1.411951 0.172471,2.122199 0.07437,1.918927 0.102727,3.850399 -0.109368,5.761847 -0.04023,0.206332 -0.08491,0.616183 -0.223258,0.825899 -0.224925,0.340961 -1.124932,0.320125 -1.459521,0.382424 -1.715506,0.128 -3.435154,0.172275 -5.154859,0.204663 -0.363381,0.03301 -0.623517,-0.01413 -0.913828,0.21281 -0.403114,0.315105 -0.232939,0.918223 -0.222769,1.342268 0.116028,1.737008 0.266875,3.47132 0.409435,5.206293 0.163576,2.000634 0.379833,4.025951 0.167984,6.029886 -0.01466,0.10567 -0.133276,0.258681 -0.04396,0.317011 6.562976,4.285793 3.410915,2.971913 3.40392,1.491911 -0.0038,-0.312703 -0.0013,-0.626327 -0.03325,-0.937749 -0.08534,-0.434629 -0.244046,-0.852342 -0.281805,-1.297575 -0.235307,-1.277223 -0.485447,-2.559876 -0.475136,-3.86475 -0.02114,-2.179043 0.0078,-4.357926 0.0284,-6.536889 0.01577,-1.946293 0.03698,-3.894608 -0.05646,-5.83937 -0.0308,-0.479552 -0.05634,-0.957598 -0.06159,-1.438198 -0.0011,-0.101753 0.08377,-0.246899 5.29e-4,-0.305282 -3.383822,-2.370185 -2.683875,-3.206977 -3.606305,-1.916908 -0.185052,1.026892 -0.250058,2.07288 -0.470855,3.094296 -0.164359,0.880227 -0.327163,1.767486 -0.565491,2.631586 -0.08814,0.319542 -0.276387,0.969412 -0.491924,1.278668 -0.06087,0.08734 -0.165299,0.134199 -0.247949,0.2013 -0.112162,0.03462 -0.220954,0.0831 -0.336487,0.10387 -0.309911,0.05571 -0.746424,0.04282 -1.048911,0.03338 -0.737127,-0.02299 -1.47165,-0.09095 -2.207424,-0.137099 -0.673513,-0.04492 -0.687679,-0.04158 -1.350135,-0.102312 -0.466608,-0.04278 -0.977786,-0.151284 -1.449088,-0.105156 -0.09519,0.0093 -0.186238,0.04367 -0.279355,0.0655 -0.07102,0.0482 -0.150768,0.08556 -0.213072,0.144598 -0.315735,0.299204 -0.232042,0.821055 -0.306123,1.206444 -0.07772,0.658569 -0.128135,1.320311 -0.157884,1.982735 -0.04969,0.630282 -0.129297,1.257752 -0.243613,1.879661 -0.119785,0.59296 -0.179152,1.200102 -0.220062,1.802847 -0.06164,1.205386 -0.06165,2.413259 -0.07012,3.619862 -0.01887,0.951979 -0.01603,1.906987 -0.112271,2.855198 -0.0108,0.06886 -0.02043,0.13792 -0.03242,0.206584 -0.0048,0.02767 -0.03855,0.06311 -0.01805,0.08231 0.01836,0.0172 0.02673,-0.0433 0.03398,-0.06739 0.0081,-0.02689 -0.01296,-0.0974 0.0114,-0.08347 2.536669,1.448462 4.384844,2.716761 3.222368,1.920582 -0.226608,-0.291661 0.07115,0.105963 -0.157266,-0.255212 -0.03041,-0.04809 -0.07375,-0.08704 -0.104798,-0.134721 -0.1474,-0.226359 -0.270791,-0.47186 -0.398315,-0.709393 -0.523975,-0.930949 -1.084532,-1.838703 -1.617583,-2.764419 -0.954315,-1.679689 -1.944756,-3.339412 -2.807221,-5.069795 -1.082564,-2.183286 -2.113523,-4.396989 -2.864601,-6.720253 -0.288804,-0.871034 -0.573932,-1.743408 -0.823474,-2.626762 -0.05972,-0.211391 -0.115109,-0.424018 -0.168164,-0.63718 -0.03764,-0.151252 0.02037,-0.361828 -0.103894,-0.455911 -1.088665,-0.824212 -2.292487,-1.484104 -3.438733,-2.226157 -0.07477,0.01614 -0.153165,0.02035 -0.224314,0.04844 -0.44204,0.174572 -0.844442,0.877318 -1.165043,1.202182 -0.797679,0.935199 -1.566881,1.894845 -2.401819,2.798029 -0.945354,1.095558 -1.866882,2.212107 -2.881856,3.245612 -0.124601,0.130567 -0.361875,0.402754 -0.536182,0.517414 -0.424573,0.279284 -0.994146,0.199274 -1.470188,0.218535 -1.800847,-0.05413 -3.599246,-0.16806 -5.399664,-0.234645 -1.515338,-0.07027 -3.026129,-0.180624 -4.528028,-0.39886 0,0 3.194268,2.320772 3.194268,2.320772 z" />
        <path
           style="fill:#000000;fill-opacity:1;stroke-width:0.605999"
           id="path360"
           d="m 81.629532,86.045425 c 0.769559,0.94561 1.486157,1.932599 2.197148,2.922479 0.963829,1.306362 1.973278,2.576838 2.912456,3.901379 0.814552,1.135954 1.494676,2.356313 2.165075,3.580064 0.292717,0.580104 0.622289,1.140659 0.92465,1.715505 0.04161,0.127921 0.13303,0.233413 0.175599,0.360736 0.01101,0.03291 -0.01056,0.08605 0.02019,0.102129 3.611102,1.888173 2.862866,2.897223 3.71792,1.564443 0.325387,-0.568514 0.678111,-1.118945 1.117013,-1.607956 0.403196,-0.449231 0.707376,-0.713047 1.150416,-1.125083 1.146471,-1.066503 2.131914,-2.288434 3.130092,-3.490624 0.701953,-0.783788 1.445499,-1.542116 2.026259,-2.423334 0.12468,-0.313389 0.21596,-0.737685 -0.15601,-0.954815 -3.383102,-1.974811 -2.674585,-1.936462 -5.075594,-2.186382 -1.296223,-0.133503 -2.591205,-0.282334 -3.879884,-0.476112 -0.309536,-0.04961 -0.620075,-0.09178 -0.931209,-0.12976 0,0 3.129817,2.325621 3.129817,2.325621 v 0 c 0.286242,0.0263 0.572336,0.05409 0.85811,0.08514 1.260544,0.13218 2.524709,0.230796 3.780649,0.405032 0.247312,0.04075 0.49651,0.07135 0.741934,0.122261 0.21144,0.04386 0.803757,0.286224 0.627307,0.16175 -0.906024,-0.639106 -1.913586,-1.121989 -2.843838,-1.725289 -0.08625,-0.05593 0.206413,0.03058 0.29913,0.07496 0.205616,0.09843 0.1358,0.184989 0.119597,0.375008 -0.05105,0.103981 -0.09212,0.213487 -0.153146,0.311949 -0.481827,0.777443 -1.197977,1.389366 -1.732248,2.127427 -0.944033,1.220047 -1.911559,2.426642 -3.049394,3.475257 -0.586658,0.537919 -1.197155,1.069509 -1.731754,1.660911 -0.216916,0.239964 -0.400328,0.50831 -0.607205,0.756981 -0.06201,0.07454 -0.126865,0.146682 -0.190296,0.220025 -1.159439,0.778113 -0.04651,-0.0028 3.346579,1.909903 0.0275,0.0155 -0.06184,0.0324 -0.09193,0.0228 -0.125444,-0.0399 -0.125127,-0.258893 -0.225745,-0.32755 -0.305239,-0.632925 -0.767757,-1.177694 -1.082516,-1.806649 -0.715503,-1.232707 -1.376593,-2.500685 -2.22676,-3.6499 -0.942237,-1.314453 -1.905662,-2.611469 -2.89224,-3.892968 -0.661366,-0.931024 -1.325787,-1.860251 -1.951397,-2.815889 0,0 -3.618767,-1.569448 -3.618767,-1.569448 z" />
        <path
           style="fill:#000000;fill-opacity:1;stroke-width:0.605999"
           id="path362"
           d="m 101.00499,90.721864 c 1.64988,-0.112633 3.30836,-0.08926 4.96139,-0.07768 1.43389,0.01177 2.867,0.05965 4.29971,0.115713 0,0 -2.96577,-2.159836 -2.96577,-2.159836 v 0 c -1.37747,0.02633 -2.75531,0.03778 -4.13283,0.0034 -1.78242,-0.04739 -3.56541,-0.113919 -5.346321,-0.194741 0,0 3.183821,2.313183 3.183821,2.313183 z" />
        <path
           style="fill:#000000;fill-opacity:1;stroke-width:0.605999"
           id="path364"
           d="m 110.11486,90.191176 c 0.88848,-1.156118 2.00165,-2.117844 3.05552,-3.118416 0.19495,-0.199017 0.39615,-0.39211 0.58486,-0.597054 0.2025,-0.219908 0.39054,-0.452717 0.58826,-0.676936 0.68736,-0.779502 1.37934,-1.551083 2.12564,-2.274641 0.22257,-0.159335 0.59006,-0.679614 0.88678,-0.727864 0.15783,-0.02566 0.5396,0.342014 0.39774,0.268214 -0.98471,-0.512284 -1.93982,-1.079572 -2.90974,-1.619356 1.4504,1.268928 2.89712,2.538886 4.3944,3.752876 0.8277,0.642821 1.67805,1.255236 2.53631,1.856282 0.3772,0.264163 0.73964,0.551609 1.13542,0.787033 1.22831,0.730628 2.47114,1.436536 3.70672,2.154803 1.2225,0.692902 3.43606,1.850888 -2.24801,-1.287933 -0.0522,-0.02881 0.0988,0.07278 0.12816,0.124635 0.0929,0.164089 -0.021,0.316372 -0.0753,0.470135 -0.97503,1.899894 -2.36916,3.534709 -3.66417,5.218372 -1.27786,1.562571 -2.33702,3.278132 -3.42133,4.974762 -0.43715,0.708832 -0.86575,1.422122 -1.28699,2.140392 0.1397,-0.063 -0.13994,0.23252 -0.17131,0.16076 -0.0255,-0.0583 -0.0664,-0.2192 -0.009,-0.19073 1.09451,0.54734 2.11422,1.2359 3.20577,1.78913 0.12436,0.063 -0.19666,-0.1985 -0.28316,-0.30784 -0.13452,-0.17004 -0.25248,-0.35254 -0.37872,-0.52881 -1.1462,-1.6762 -2.29762,-3.351838 -3.57112,-4.935163 -0.29974,-0.372665 -0.61015,-0.736626 -0.91522,-1.104939 -1.0502,-1.261814 -2.0717,-2.547123 -3.06399,-3.854839 0,0 -3.27484,-1.403774 -3.27484,-1.403774 v 0 c 1.05639,1.31799 2.1325,2.620069 3.20444,3.925427 0.62117,0.75292 1.15056,1.377509 1.73754,2.155513 0.89393,1.184831 1.71422,2.425711 2.46033,3.708465 0.0933,0.1744 0.18281,0.3509 0.27993,0.52321 0.0626,0.11099 0.0924,0.25655 0.19896,0.32638 1.18541,0.7768 2.63621,2.86247 3.75561,1.99324 0.11276,-0.0876 0.14655,-0.19997 0.20317,-0.3228 0.35262,-0.7488 0.7442,-1.47811 1.11062,-2.22013 0.961,-1.749233 1.93363,-3.496986 3.1743,-5.06949 0.27377,-0.353904 0.54308,-0.711311 0.82133,-1.061714 1.06972,-1.347139 2.23523,-2.620336 3.22807,-4.026935 0.1334,-0.243318 0.3057,-0.468495 0.29968,-0.763913 -0.002,-0.09677 -0.0121,-0.221771 -0.0929,-0.2751 -1.38921,-0.91721 -2.81218,-1.732436 -4.26814,-2.516635 0.89225,0.521602 1.77606,1.057929 2.67675,1.564812 0.19872,0.111834 -0.37982,-0.25242 -0.56953,-0.378928 -1.12613,-0.750959 -2.25633,-1.497364 -3.33103,-2.321748 -1.41954,-1.15217 -2.79767,-2.357138 -4.10225,-3.638928 -1.21541,-0.73546 -2.40908,-1.508101 -3.64623,-2.206379 -0.21768,-0.122865 -0.45153,-0.06182 -0.64381,0.05642 -0.33851,0.208169 -0.52927,0.600736 -0.80903,0.867645 -1.05099,1.210541 -2.07068,2.45018 -3.20684,3.583832 -1.06462,1.029819 -2.16038,2.027505 -3.29363,2.9816 0,0 3.34049,2.047052 3.34049,2.047052 z" />
        <path
           style="fill:#000000;fill-opacity:1;stroke-width:0.605999"
           id="path378"
           d="m 129.07604,91.109592 c 2.06732,-0.07717 4.13667,-0.06156 6.20489,-0.04152 0.60479,0.104018 1.44205,-0.11176 2.03746,0.0692 0.13875,0.04216 0.50219,0.289968 0.37402,0.222155 -1.01381,-0.536385 -1.96446,-1.207035 -3.03134,-1.628084 -0.19232,-0.0759 0.19483,0.364722 0.29224,0.547084 0.72912,2.82263 0.74811,5.791681 0.913,8.690739 0.20766,2.548284 -0.19854,2.828644 3.83317,3.575884 0.30125,0.0558 0.14608,-0.59537 0.20429,-0.89617 0.10212,-0.52764 0.18436,-1.05893 0.27654,-1.58839 1.04179,-5.802494 1.73388,-11.657226 2.46597,-17.504198 0.0892,-0.637764 0.17123,-1.27658 0.26767,-1.913292 0.0612,-0.404098 0.12461,-0.808148 0.20524,-1.208823 0.0314,-0.155813 0.26414,-0.372956 0.13029,-0.458655 -3.97844,-2.547244 -3.35296,-2.586265 -3.75717,-0.109868 -0.18053,1.087665 -0.35673,2.176333 -0.55947,3.260167 -0.0959,0.512971 -0.15841,1.126064 -0.41292,1.596765 1.1552,0.546693 2.25846,1.220378 3.46561,1.640078 0.15119,0.05257 -0.0837,-0.310496 -0.0996,-0.469781 -0.0343,-0.344982 -0.043,-0.692226 -0.0505,-1.038831 -0.0323,-1.486101 0.0113,-2.971485 0.0789,-4.455641 0.0715,-0.962046 0.0711,-1.308269 0.22073,-2.201005 0.0327,-0.19516 0.0664,-0.39148 0.12645,-0.580017 0.0247,-0.07758 0.0638,-0.263202 0.12523,-0.209733 0.0784,0.06828 0.088,0.352034 -0.008,0.311854 -1.08735,-0.455533 -2.09247,-1.086731 -3.1387,-1.630095 0.10395,0.243038 0.2152,0.483092 0.31187,0.72912 0.56864,1.44721 1.04629,2.93338 1.57851,4.393904 0.2169,0.595214 1.403,3.789844 1.61715,4.367119 1.06084,2.792469 2.16841,5.577473 3.641,8.182203 0.44465,0.731369 0.93707,1.436211 1.54003,2.045499 0.43357,0.402989 0.9193,0.741712 1.36318,1.132583 0.71351,0.694082 1.21979,1.551559 1.72747,2.397697 0.39358,0.591841 0.67409,1.244602 0.98439,1.88093 1.22739,0.44088 2.38174,1.22386 3.68217,1.32265 0.3462,0.0263 0.0973,-0.6876 0.13747,-1.03247 0.064,-0.549228 0.11203,-1.100217 0.17482,-1.649579 0.29899,-2.615706 0.6934,-5.215782 1.08366,-7.81907 0.61515,-4.258255 1.50175,-8.467884 2.39162,-12.674791 0.26571,-1.082167 0.28972,-2.213194 0.59209,-3.286479 1.16414,0.653193 -1.93348,-1.085612 -3.39532,-1.676998 -0.11909,-0.04818 0.0974,0.238368 0.1322,0.362043 0.0622,0.220972 0.10745,0.446357 0.15816,0.670231 0.13838,0.610894 0.39598,1.816595 0.51346,2.361912 0.76896,3.631507 1.46481,7.277793 2.17188,10.92169 0.086,0.400905 0.31304,1.549059 0.47299,2.001814 0.0815,0.230651 0.10817,0.527047 0.31009,0.665133 1.33201,0.910929 2.73022,1.739287 4.19522,2.415924 0.45006,0.207873 3.34186,0.365398 3.58402,0.383048 5.80785,0.20569 11.62178,0.134887 17.43237,0.139573 3.80008,-0.01199 7.5989,-0.118523 11.39865,-0.155295 1.30634,-0.0062 0.69483,-0.02169 1.8348,0.03345 0,0 -3.09981,-2.262507 -3.09981,-2.262507 v 0 c -1.0951,0.0064 -0.50767,-0.0046 -1.76215,0.03987 -3.70445,0.128871 -7.40864,0.274617 -11.11455,0.352698 -5.85109,0.0374 -11.71193,0.103484 -17.55422,-0.270423 -0.70074,-0.07977 -1.40657,-0.123243 -2.10223,-0.239299 -0.53164,-0.0887 -1.85505,-0.833279 -1.57315,-0.373881 0.47593,0.775619 1.45044,1.122374 2.27224,1.513179 0.21575,0.102595 -0.27636,-0.393203 -0.37482,-0.610865 -0.21725,-0.480263 -0.48262,-1.580295 -0.60178,-2.027986 -0.82268,-3.612904 -1.54423,-7.247882 -2.15065,-10.903654 -0.16456,-0.986832 -0.33436,-1.972095 -0.4779,-2.962169 -0.0197,-0.136062 0.0543,-0.331748 -0.06,-0.408064 -3.46642,-2.313194 -2.84103,-3.153966 -3.68767,-1.843857 -0.21726,1.124034 -0.23391,2.271477 -0.4224,3.40048 -0.63626,4.292058 -1.39551,8.564787 -2.07868,12.84945 -0.4248,2.568845 -0.86964,5.133546 -1.32513,7.697126 -0.0934,0.52564 -0.18216,1.052208 -0.2866,1.575766 -0.0614,0.307755 -0.43822,0.701338 -0.21078,0.917556 0.96605,0.918354 2.26419,1.407124 3.39627,2.110684 -0.4654,-0.27393 -0.67191,-1.40858 -1.07239,-1.839356 -0.52557,-0.848138 -1.00564,-1.726216 -1.66851,-2.480305 -0.40418,-0.430652 -0.87709,-0.780137 -1.35081,-1.128527 -0.64363,-0.592297 -1.19473,-1.261976 -1.67801,-1.993046 -1.6357,-2.587953 -2.87609,-5.394502 -3.96051,-8.252483 -1.13594,-3.091739 -2.20125,-6.204136 -3.12839,-9.365607 -1.18196,-0.807654 -2.30628,-1.706925 -3.54589,-2.422967 -0.24684,-0.142587 -0.40476,0.48142 -0.41434,0.530386 -0.18659,0.95322 -0.11561,1.949323 -0.19869,2.910065 -0.06,1.473285 -0.10484,2.947739 -0.17875,4.420412 -0.0171,0.339873 -0.0437,0.679217 -0.0609,1.019085 -0.009,0.182166 -0.1679,0.442645 -0.0182,0.546889 1.11535,0.776822 2.39147,1.292555 3.5872,1.938832 0.14486,-0.570489 0.20373,-1.161238 0.29587,-1.741734 0.17199,-1.083516 0.37038,-2.162251 0.57902,-3.239267 0.55838,-2.409574 0.97341,-1.754325 -3.04589,-3.493511 -0.16376,-0.07086 0.0135,0.356968 0.007,0.535276 -0.0245,0.638289 -0.18763,2.869351 -0.21499,3.259992 -0.50734,5.837584 -1.21828,11.670364 -2.64562,17.364432 -0.13361,0.498854 -0.25539,1.001025 -0.40082,1.496563 -0.0728,0.248211 -0.44633,0.560841 -0.25363,0.733411 0.97335,0.87171 2.23224,1.35876 3.34835,2.03814 -0.0565,-0.0893 -0.13788,-0.16714 -0.16948,-0.268 -0.1017,-0.32464 -0.22889,-1.44479 -0.2597,-1.68065 -0.25464,-2.915305 -0.3757,-5.842759 -0.74898,-8.746299 -0.0672,-0.217387 -0.0213,-0.513379 -0.20164,-0.652166 -3.28004,-2.524622 -3.06504,-2.45723 -6.04955,-2.406994 -2.10635,0.02096 -4.21363,0.03268 -6.31918,-0.04152 0,0 3.18382,2.313183 3.18382,2.313183 z" />
        <path
           id="path380"
           style="fill:#000000;fill-opacity:1;stroke-width:0.605999"
           d="m 188.42571,89.579028 c -1.46099,0.106831 -2.92588,0.166693 -4.38991,0.211874 -0.72684,0.02244 -1.45549,0.0044 -2.18075,0.05736 -0.86044,0.06282 -1.71464,0.193283 -2.57194,0.289904 -2.12632,0.246658 -3.89223,0.496131 -6.04407,0.557072 -1.05172,0.02978 -2.10434,-0.05398 -3.1564,-0.04134 -0.96423,0.01159 -1.92853,0.04366 -2.89285,0.08578 -0.30615,-0.0061 -0.61215,-0.01275 -0.91829,-0.02067 -0.9353,-0.02418 -1.87021,-0.07509 -2.80396,-0.134358 -0.007,-4.49e-4 -0.0158,-0.0019 -0.0233,-0.0026 l -0.17312,-0.126091 c -0.19519,-0.01047 -0.3903,-0.02105 -0.58549,-0.03152 -0.37582,-0.0889 -0.68888,-0.149657 -0.51987,0.03359 0.17788,0.192848 0.37122,0.368307 0.57464,0.531751 -0.57652,0.0367 -1.15313,0.07384 -1.72909,0.109554 0.52287,0.361087 0.71863,0.563025 0.6966,0.657841 -0.40904,-0.0437 -0.89018,-0.107432 -1.44126,-0.187069 -0.41821,-0.112439 -0.86413,-0.241434 -1.25005,-0.346232 -0.34216,-0.129145 -0.64849,-0.237437 -0.70177,-0.170015 -0.26722,-0.04933 -0.39094,-0.03543 -0.25838,0.0956 0.23149,0.228824 0.47208,0.449463 0.71934,0.663009 1.08873,1.574979 1.44494,1.699848 2.24586,1.598352 0.13284,0.07676 0.26654,0.15249 0.40152,0.224792 0.42605,0.228213 0.96446,0.06395 1.44694,0.0925 2.69344,0.159368 2.61484,0.174934 3.8778,0.131258 -0.0526,-0.04277 -0.10018,-0.0802 -0.15089,-0.120923 -0.80586,-0.510545 -1.56749,-1.105615 -2.37402,-1.614888 0.15321,0.0047 0.30669,0.0076 0.45992,0.01137 0.18744,-0.02939 0.71563,0.02601 1.6061,0.01912 0.62636,-0.0048 1.25231,-0.0345 1.87844,-0.05168 l 0.0625,0.04496 c 3.02678,-0.04395 6.05461,-0.195841 9.07852,-0.239779 3.02744,-0.08164 6.05386,-0.192832 9.0811,-0.275435 l 1.91978,1.394747 c 1.12585,-0.01616 2.25178,-0.03093 3.37757,-0.05633 0.48237,0.02711 0.96474,0.05444 1.44694,0.08527 0.17365,0.03495 0.33093,0.0508 0.45837,0.03152 0.46562,0.03097 0.93137,0.06083 1.39681,0.0956 l -0.43666,-0.317294 c 0.0498,-0.0025 0.0996,-0.0048 0.14934,-0.0072 0.11351,-0.02625 0.44005,-0.01795 0.34055,-0.07855 -0.53435,-0.325371 -1.06527,-0.665709 -1.60404,-0.990638 -0.49285,-0.423351 -1.24564,-0.757352 -1.68568,-1.198893 -0.0284,0.03569 -0.0408,0.09766 -0.0853,0.107487 -0.0754,0.01662 -0.15138,0.0297 -0.22738,0.04289 -0.19098,-0.08013 -0.38446,-0.154485 -0.58084,-0.221692 -0.38027,-0.130146 -0.78376,-0.100624 -1.19166,-0.04444 z" />
        <path
           id="path388"
           style="fill:#000000;fill-opacity:1;stroke-width:0.605999"
           d="m 175.16915,89.813123 c -0.61329,-0.0058 -1.23997,0.07443 -1.85156,0.0677 -3.04085,-0.03351 -6.08487,0.0051 -9.12554,0.04651 -0.42872,-0.09853 -0.88519,-0.212423 -0.72141,0.01705 0.002,0.003 0.004,0.0048 0.006,0.0078 -0.92817,0.03562 -1.15094,0.112432 -0.11834,0.690397 -0.12743,-9.14e-4 -0.25499,5.57e-4 -0.38241,-5.16e-4 0,0 0.50734,0.368559 0.84078,0.610815 1.73824,-0.0769 3.47636,-0.158575 5.21415,-0.24598 l -1.26349,-0.917773 c 3.11111,0.111396 6.22461,0.140024 9.33793,0.148311 -0.28149,-0.102365 -0.56495,-0.199154 -0.85266,-0.283187 -0.35226,-0.102889 -0.71516,-0.137577 -1.08314,-0.141076 z m 5.78466,2.560567 c -0.60181,0.02055 -1.20385,0.04362 -1.80557,0.06821 0.57185,-0.0058 1.14376,-0.01609 1.71566,-0.01809 0.0199,-0.0158 0.06,-0.03329 0.0915,-0.05013 -5.1e-4,1.7e-5 -0.001,-1.8e-5 -0.002,0 z" />
        <path
           style="fill:#000000;fill-opacity:1;stroke-width:0.605999"
           id="path393"
           d="m 116.63428,89.079556 c -6.48595,0.164044 -12.97209,0.246541 -19.4563,0.486894 -4.041224,0.137419 -8.080496,0.32381 -12.121181,0.475297 -1.573691,0.059 -3.189139,0.05053 -4.762177,0.192731 1.294315,0.761518 2.48998,1.723482 3.882948,2.284555 0.501732,0.202094 1.08086,-0.04526 1.621306,-0.0675 0.815141,-0.03354 1.630153,-0.07055 2.445459,-0.09981 2.696583,-0.09678 5.392131,-0.149188 8.090162,-0.174961 0.499943,2.64e-4 0.999889,-0.0013 1.499827,0.0011 0.224737,0.0011 0.449538,0.01664 0.674156,0.0093 0.05334,-0.0019 0.198792,-0.0048 0.155871,-0.03655 -1.095959,-0.809845 -1.99694,-2.286212 -3.358933,-2.330302 -1.348763,-0.04366 2.100088,1.734315 3.311573,2.328768 0.3522,0.17282 0.779841,-0.08657 1.16976,-0.129858 2.208889,-0.212095 4.424389,-0.341125 6.636669,-0.509151 1.08452,-0.08237 2.18872,-0.128093 3.24616,-0.399934 0.28218,-0.152661 0.17315,-0.06041 0.34661,-0.251909 0,0 -3.40232,-2.061454 -3.40232,-2.061454 v 0 c -0.0631,0.07034 -0.0149,0.02246 -0.16937,0.113409 -0.95386,0.350747 -1.86924,0.445836 -2.89413,0.544586 -2.25833,0.217599 -4.528077,0.325385 -6.795334,0.386877 -3.870441,0.02603 1.572234,-0.291659 1.729679,2.362927 0.0763,1.286452 -2.071158,-1.534136 -3.112915,-2.29277 -0.147804,-0.107636 -0.357217,0.08319 -0.539229,0.100573 -0.45221,0.0432 -0.906227,0.06473 -1.359342,0.0971 -3.537183,0.153723 -7.082462,0.258019 -10.623484,0.199668 -0.592658,-0.0098 -1.953109,-0.632507 -1.77697,-0.06655 0.327435,1.052108 1.631799,1.481151 2.4477,2.221725 0.08356,-0.04397 0.157858,-0.114621 0.250687,-0.131895 0.934506,-0.173919 3.274031,-0.336775 3.938836,-0.38313 3.980675,-0.277559 7.968417,-0.448794 11.955979,-0.587634 6.693083,-0.196059 13.391053,-0.270346 20.084243,-0.0181 0,0 -3.11594,-2.263862 -3.11594,-2.263862 z" />
      </g>
    </g>
    <g
       id="g4981"
       style="display:none">
      <path
         style="fill:#333333;fill-opacity:1;stroke-width:0.605999"
         id="path4275"
         d="m 84.706909,144.17794 c 0.201152,-0.26758 0.458144,-0.48306 0.707855,-0.70277 0.672235,-0.59146 -0.07981,0.0642 0.644364,-0.56532 0.514718,-0.42059 0.983165,-0.89282 1.466022,-1.3484 0.251698,-0.23748 0.437232,-0.40195 0.692711,-0.63197 0,0 -1.538999,-0.9509 -1.538999,-0.9509 v 0 c -0.702506,0.67359 -1.389981,1.3668 -2.153275,1.9727 -0.497771,0.40089 -1.007541,0.78664 -1.496343,1.19859 0,0 1.677665,1.02807 1.677665,1.02807 z" />
      <path
         style="fill:#333333;fill-opacity:1;stroke-width:0.605999"
         id="path4281"
         d="m 49.017303,139.89417 c -0.02413,0.6123 -0.118793,1.22486 -0.241342,1.8251 0,0 1.71546,0.91696 1.71546,0.91696 v 0 c 0.118483,-0.61059 0.203094,-1.22845 0.287488,-1.84448 0,0 -1.761606,-0.89758 -1.761606,-0.89758 z" />
      <path
         style="fill:#333333;fill-opacity:1;stroke-width:0.605999"
         id="path4285"
         d="m 26.723644,145.71481 c 0.525785,-0.62668 1.091898,-1.21713 1.629074,-1.83428 0.541224,-0.71456 1.016193,-1.46741 1.606571,-2.14483 0.09778,-0.10501 0.195562,-0.21001 0.293341,-0.31502 0,0 -1.654125,-1.00447 -1.654125,-1.00447 v 0 c -0.09786,0.10715 -0.195728,0.2143 -0.293592,0.32145 -0.58882,0.67839 -1.063916,1.43223 -1.61023,2.14302 -0.533222,0.61808 -1.085918,1.21764 -1.656595,1.80122 0,0 1.685556,1.03291 1.685556,1.03291 z" />
      <path
         style="fill:#333333;fill-opacity:1;stroke-width:0.605999"
         id="path4287"
         d="m 123.34605,153.37543 c -0.56775,0.92557 -1.18426,1.82113 -1.75657,2.74482 -0.30802,0.56985 -0.7157,1.07244 -1.11732,1.57675 0,0 1.62704,0.97242 1.62704,0.97242 v 0 c 0.40859,-0.50864 0.83447,-1.00989 1.14388,-1.58843 0.56739,-0.93155 1.17362,-1.83571 1.81261,-2.71951 0,0 -1.70964,-0.98605 -1.70964,-0.98605 z" />
      <path
         style="fill:#333333;fill-opacity:1;stroke-width:0.605999"
         id="path4289"
         d="m 111.78453,144.18669 c -0.7576,0.74872 -1.57853,1.42843 -2.41996,2.07987 0,0 1.59838,1.00639 1.59838,1.00639 v 0 c 0.84312,-0.6667 1.67271,-1.34977 2.49319,-2.04415 0,0 -1.67161,-1.04211 -1.67161,-1.04211 z" />
      <path
         style="fill:#333333;fill-opacity:1;stroke-width:0.605999"
         id="path4291"
         d="m 155.74715,147.28779 c -0.20751,2.2629 -0.56437,4.51013 -1.00208,6.73905 0,0 1.6032,0.85499 1.6032,0.85499 v 0 c 0.40482,-2.22495 0.74415,-4.46054 1.14054,-6.68664 0,0 -1.74166,-0.9074 -1.74166,-0.9074 z" />
      <path
         style="fill:#333333;fill-opacity:1;stroke-width:0.605999"
         id="path4293"
         d="m 133.87272,150.45623 c 0.48771,-0.01 0.2328,-0.006 0.76474,-0.01 0,0 -1.56729,-1.13871 -1.56729,-1.13871 v 0 c -0.54576,-0.003 -0.28187,9e-5 -0.79167,-0.01 0,0 1.59422,1.15827 1.59422,1.15827 z" />
      <path
         style="fill:#333333;fill-opacity:1;stroke-width:0.605999"
         id="path4295"
         d="m 95.002193,154.06953 c -0.296183,0.43272 -0.134768,0.20377 -0.487048,0.68487 0,0 1.658083,0.98537 1.658083,0.98537 v 0 c 0.369652,-0.46933 0.195284,-0.25173 0.521742,-0.6539 0,0 -1.692777,-1.01634 -1.692777,-1.01634 z" />
      <path
         style="fill:#333333;fill-opacity:1;stroke-width:0.605999"
         id="path4299"
         d="m 67.681802,145.53901 c 0.889675,-0.89386 1.702483,-1.86557 2.524681,-2.82194 0,0 -1.61321,-0.9716 -1.61321,-0.9716 v 0 c -0.815102,0.95411 -1.632754,1.92696 -2.585545,2.74667 0,0 1.674074,1.04687 1.674074,1.04687 z" />
      <path
         style="fill:#333333;fill-opacity:1;stroke-width:0.605999"
         id="path4301"
         d="m 72.596985,145.94841 c 0.0081,0.36597 0.0052,0.17752 0.0082,0.56535 0,0 1.7423,0.88774 1.7423,0.88774 v 0 c 0.003,-0.38347 6.6e-5,-0.19782 0.0082,-0.55699 0,0 -1.758693,-0.8961 -1.758693,-0.8961 z" />
      <path
         style="fill:#333333;fill-opacity:1;stroke-width:0.605999"
         id="path4303"
         d="m 74.437197,146.5865 c 0.407241,-0.0522 0.817554,-0.0724 1.227103,-0.0964 0,0 -1.563428,-1.12293 -1.563428,-1.12293 v 0 c -0.426715,0.0216 -0.853734,0.041 -1.279319,0.0801 0,0 1.615644,1.13916 1.615644,1.13916 z" />
      <path
         style="fill:#ffffff;fill-opacity:1;stroke-width:0.605999"
         id="path4305"
         d="m 182.81586,152.28592 c 1.738,-0.12343 3.47795,-0.22304 5.21591,-0.35134 0,0 -1.45032,-1.0377 -1.45032,-1.0377 v 0 c -1.78596,0.12818 -3.57393,0.22224 -5.3651,0.22693 0,0 1.59951,1.16211 1.59951,1.16211 z" />
      <path
         style="fill:#ffffff;fill-opacity:1;stroke-width:0.605999"
         id="path4356"
         d="m 27.64114,144.22245 c 0.240945,-0.3165 0.515662,-0.60235 0.793813,-0.88554 0,0 -1.649542,-1.00887 -1.649542,-1.00887 v 0 c -0.28362,0.28845 -0.562891,0.58058 -0.837049,0.87807 0,0 1.692778,1.01634 1.692778,1.01634 z" />
      <path
         style="fill:#ffffff;fill-opacity:1;stroke-width:0.605999"
         id="path4362"
         d="m 68.653029,144.16415 c 0.343938,-0.26642 0.646923,-0.57782 0.957509,-0.88052 0.167465,-0.16121 0.08767,-0.0789 0.239832,-0.24636 0,0 -1.681449,-1.01859 -1.681449,-1.01859 v 0 c -0.142994,0.15968 -0.06678,0.0789 -0.229602,0.24138 -0.29845,0.30905 -0.601229,0.61701 -0.960361,0.85722 0,0 1.674071,1.04687 1.674071,1.04687 z" />
      <path
         style="fill:#ffffff;fill-opacity:1;stroke-width:0.605999"
         id="path4364"
         d="m 85.837516,143.02586 c 0.292248,-0.21008 0.56693,-0.44392 0.856906,-0.65813 0,0 -1.654273,-1.04468 -1.654273,-1.04468 v 0 c -0.281996,0.22097 -0.556012,0.45777 -0.867087,0.63707 0,0 1.664454,1.06574 1.664454,1.06574 z" />
      <path
         style="fill:#ffffff;fill-opacity:1;stroke-width:0.605999"
         id="path4366"
         d="m 124.34697,155.27205 c 0.19661,-0.24362 0.3843,-0.49337 0.58177,-0.73639 0,0 -1.65245,-0.99011 -1.65245,-0.99011 v 0 c -0.19623,0.23818 -0.38283,0.48821 -0.61488,0.69359 0,0 1.68556,1.03291 1.68556,1.03291 z" />
      <path
         style="fill:#ffffff;fill-opacity:1;stroke-width:0.605999"
         id="path4368"
         d="m 111.69668,146.64961 c 0.17151,-0.11805 0.35262,-0.21915 0.52706,-0.33281 0,0 -1.64473,-1.05712 -1.64473,-1.05712 v 0 c -0.17554,0.11093 -0.35374,0.21655 -0.53707,0.31429 0,0 1.65474,1.07564 1.65474,1.07564 z" />
      <path
         style="fill:#ffffff;fill-opacity:1;stroke-width:0.605999"
         id="path4370"
         d="m 155.37376,149.06412 c 0.019,0.5529 0.0305,1.10695 0.005,1.65973 -0.0313,0.34192 -0.0993,0.67881 -0.15923,1.01647 0,0 1.72627,0.91498 1.72627,0.91498 v 0 c 0.0517,-0.34793 0.1117,-0.69469 0.15287,-1.04412 0.0306,-0.54937 0.009,-1.09983 0.0363,-1.64947 0,0 -1.76161,-0.89759 -1.76161,-0.89759 z" />
      <path
         style="fill:#ffffff;fill-opacity:1;stroke-width:0.605999"
         id="path4429"
         d="m 50.516927,141.77411 c 0.0719,-0.11052 0.158496,-0.20837 0.248367,-0.30421 0,0 -1.673699,-1.01536 -1.673699,-1.01536 v 0 c -0.09295,0.10414 -0.178437,0.2143 -0.272737,0.31718 0,0 1.698069,1.00239 1.698069,1.00239 z" />
      <path
         style="fill:#333333;fill-opacity:1;stroke-width:0.605999"
         id="path4431"
         d="m 96.554921,155.16815 c 0.109755,-0.11846 0.232852,-0.22196 0.347858,-0.33522 0,0 -1.674084,-1.02933 -1.674084,-1.02933 v 0 c -0.113054,0.10803 -0.228823,0.21251 -0.349647,0.31188 0,0 1.675873,1.05267 1.675873,1.05267 z" />
      <path
         style="fill:#333333;fill-opacity:1;stroke-width:0.605999"
         id="path4435"
         d="m 142.54793,140.09616 c 0.11088,-0.55935 0.21165,-1.12066 0.28427,-1.68633 0.0554,-0.43641 0.0717,-0.8762 0.0799,-1.31559 7.9e-4,-0.0587 0.002,-0.1173 0.002,-0.17594 0,0 -1.74838,-0.89196 -1.74838,-0.89196 v 0 c 1.8e-4,0.0587 2.6e-4,0.11735 5.3e-4,0.17602 -0.002,0.43584 -0.009,0.87219 -0.0524,1.30624 -0.0607,0.55078 -0.14104,1.1004 -0.30002,1.6327 0,0 1.73376,0.95486 1.73376,0.95486 z" />
      <path
         style="fill:#333333;fill-opacity:1;stroke-width:0.605999"
         id="path4437"
         d="m 41.61355,144.63878 c -0.579091,-0.12308 -0.809707,-0.031 -1.07138,0.50351 -0.105789,0.2117 -0.19167,0.43166 -0.27517,0.65274 0,0 1.702393,0.94771 1.702393,0.94771 v 0 c 0.084,-0.21429 0.165314,-0.43022 0.271698,-0.63481 0.02816,-0.0573 0.04883,-0.11883 0.08448,-0.17174 0.197302,-0.29285 0.576403,-0.16959 0.8553,-0.099 0,0 -1.56732,-1.19846 -1.56732,-1.19846 z" />
      <path
         style="fill:#333333;fill-opacity:1;stroke-width:0.605999"
         id="path4441"
         d="m 71.882904,154.36308 c 0.01622,0.39711 0.0098,0.79477 0.0068,1.19209 2.65e-4,0.35385 2.65e-4,0.70769 -0.0016,1.06154 -0.02812,0.21059 0.07671,0.50687 -0.08521,0.67672 -0.104868,0.0536 -0.213807,0.0623 -0.32644,0.0361 0,0 1.599623,1.16517 1.599623,1.16517 v 0 c 0.160388,-0.0257 0.309642,-0.0642 0.426704,-0.18572 0.174879,-0.24131 0.143097,-0.51394 0.136364,-0.80003 -0.0019,-0.35436 -0.0019,-0.70871 -0.0016,-1.06307 -0.003,-0.39501 -0.0096,-0.79038 0.0068,-1.18518 0,0 -1.761607,-0.89758 -1.761607,-0.89758 z" />
      <path
         style="fill:#333333;fill-opacity:1;stroke-width:0.605999"
         id="path4443"
         d="m 101.92815,151.08335 c 0.27925,-0.0516 0.56507,-0.0584 0.84834,-0.0658 0.20186,-0.003 0.40023,-0.0432 0.60176,-0.0571 0.15623,-0.009 0.3127,-0.0106 0.46914,-0.0107 0,0 -1.58773,-1.15042 -1.58773,-1.15042 v 0 c -0.15903,0.004 -0.3184,0.006 -0.47674,0.0232 -0.19422,0.0205 -0.38713,0.0535 -0.58257,0.0606 -0.28923,0.0184 -0.57924,0.0458 -0.86906,0.0401 0,0 1.59686,1.16019 1.59686,1.16019 z" />
      <path
         style="fill:#ffffff;fill-opacity:1;stroke-width:0.605999"
         id="path4447"
         d="m 139.92771,152.20472 c -0.0457,0.17071 -0.2001,0.22984 -0.35444,0.27558 -0.0487,0.002 -0.0861,0.013 -0.12745,-0.0202 -0.0145,-0.0117 -0.0479,-0.0553 -0.0316,-0.0462 0.55712,0.30981 1.10604,0.63415 1.65907,0.95122 0,0 -1.83266,-0.74825 -1.83266,-0.74825 v 0 c 0.94864,0.55689 1.19865,1.24265 1.95862,0.95627 0.19619,-0.0904 0.37027,-0.21003 0.4622,-0.41354 0,0 -1.73376,-0.95485 -1.73376,-0.95485 z" />
      <path
         style="fill:#ffffff;fill-opacity:1;stroke-width:0.605999"
         id="path4449"
         d="m 42.040423,146.08744 c 0.09835,-0.108 0.21748,-0.20692 0.349472,-0.27134 0,0 -1.654836,-1.07129 -1.654836,-1.07129 v 0 c -0.129196,0.0893 -0.247333,0.19289 -0.370509,0.28998 0,0 1.675873,1.05265 1.675873,1.05265 z" />
      <path
         style="fill:#ffffff;fill-opacity:1;stroke-width:0.605999"
         id="path4451"
         d="m 73.581413,157.77073 c 0.0033,-0.12997 0.03526,-0.2548 0.06633,-0.38007 0,0 -1.732963,-0.93374 -1.732963,-0.93374 v 0 c -0.02824,0.12861 -0.0614,0.25584 -0.08256,0.38585 0,0 1.749195,0.92796 1.749195,0.92796 z" />
      <path
         style="fill:#ffffff;fill-opacity:1;stroke-width:0.605999"
         id="path4453"
         d="m 74.825089,146.27544 c 0.03145,-0.0149 0.06291,-0.0298 0.09436,-0.0448 0,0 -1.638228,-1.08826 -1.638228,-1.08826 v 0 c -0.03619,0.0153 -0.07239,0.0305 -0.10858,0.0458 0,0 1.652447,1.08725 1.652447,1.08725 z" />
      <path
         style="fill:#ffffff;fill-opacity:1;stroke-width:0.605999"
         id="path4455"
         d="m 96.302162,155.1119 c 0.155919,-0.17028 0.295024,-0.35462 0.460671,-0.516 0,0 -1.680736,-1.02631 -1.680736,-1.02631 v 0 c -0.150831,0.16398 -0.284276,0.34685 -0.455808,0.48965 0,0 1.675873,1.05266 1.675873,1.05266 z" />
      <path
         style="fill:#ffffff;fill-opacity:1;stroke-width:0.605999"
         id="path4461"
         d="m 103.50531,150.98313 c 0.24053,-0.0638 0.47239,-0.15524 0.7151,-0.21153 0,0 -1.62059,-1.11431 -1.62059,-1.11431 v 0 c -0.23636,0.0706 -0.46786,0.16401 -0.71544,0.18857 0,0 1.62093,1.13727 1.62093,1.13727 z" />
      <path
         style="fill:#b2a800;fill-opacity:1;stroke-width:0.605999"
         id="path4463"
         d="m 143.11406,138.01003 c 0.0379,-0.1553 0.10502,-0.30054 0.14581,-0.4554 0,0 -1.73323,-0.93397 -1.73323,-0.93397 v 0 c -0.0304,0.1513 -0.0876,0.29227 -0.14634,0.43451 0,0 1.73376,0.95486 1.73376,0.95486 z" />
      <path
         sodipodi:type="star"
         style="fill:#fb6800;fill-opacity:1;stroke-width:0.605999"
         id="path4779"
         inkscape:flatsided="false"
         sodipodi:sides="5"
         sodipodi:cx="189.90524"
         sodipodi:cy="138.36214"
         sodipodi:r1="2.2009261"
         sodipodi:r2="1.100463"
         sodipodi:arg1="0.083141232"
         sodipodi:arg2="0.71145976"
         inkscape:rounded="0"
         inkscape:randomized="0"
         d="m 192.09857,138.54491 -1.35983,0.53576 -0.32955,1.42392 -0.92975,-1.12771 -1.45607,0.12659 0.78521,-1.23272 -0.57034,-1.34569 1.41503,0.36585 1.10358,-0.95827 0.0893,1.45883 z"
         inkscape:transform-center-x="-0.15572455"
         inkscape:transform-center-y="0.056479439"
         transform="translate(-0.90469974,1.6801567)" />
      <path
         sodipodi:type="star"
         style="fill:#fb6800;fill-opacity:1;stroke-width:0.605999"
         id="path4781"
         inkscape:flatsided="false"
         sodipodi:sides="5"
         sodipodi:cx="169.43423"
         sodipodi:cy="143.66267"
         sodipodi:r1="1.4275335"
         sodipodi:r2="0.71376675"
         sodipodi:arg1="-0.69473828"
         sodipodi:arg2="-0.066419745"
         inkscape:rounded="0"
         inkscape:randomized="0"
         d="m 170.5309,142.74879 -0.38447,0.86651 0.49585,0.80796 -0.94291,-0.0979 -0.61519,0.72125 -0.19828,-0.927 -0.87605,-0.3622 0.82036,-0.47504 0.0738,-0.9451 0.70529,0.63342 z"
         inkscape:transform-center-x="0.10817352"
         inkscape:transform-center-y="0.029276536" />
      <path
         sodipodi:type="star"
         style="fill:#fb6800;fill-opacity:1;stroke-width:0.605999"
         id="path4783"
         inkscape:flatsided="false"
         sodipodi:sides="5"
         sodipodi:cx="127.21275"
         sodipodi:cy="142.20045"
         sodipodi:r1="1.1117887"
         sodipodi:r2="0.55589437"
         sodipodi:arg1="0.16514868"
         sodipodi:arg2="0.79346721"
         inkscape:rounded="0"
         inkscape:randomized="0"
         d="m 128.30941,142.38323 -0.70676,0.21346 -0.22484,0.70323 -0.42142,-0.60621 -0.73829,0.003 0.44632,-0.58812 -0.23145,-0.70109 0.69726,0.24274 0.59524,-0.43677 -0.0154,0.73814 z"
         inkscape:transform-center-x="-0.051003472"
         inkscape:transform-center-y="0.056479391" />
      <path
         sodipodi:type="star"
         style="fill:#fb6800;fill-opacity:1;stroke-width:0.605999"
         id="path4785"
         inkscape:flatsided="false"
         sodipodi:sides="5"
         sodipodi:cx="104.73119"
         sodipodi:cy="143.66267"
         sodipodi:r1="1.5072173"
         sodipodi:r2="0.75360864"
         sodipodi:arg1="0.24497866"
         sodipodi:arg2="0.87329719"
         inkscape:rounded="0"
         inkscape:randomized="0"
         d="m 106.19341,144.02823 -0.97817,0.21205 -0.37986,0.92601 -0.50394,-0.86477 -0.99807,-0.0751 0.66672,-0.7465 -0.23699,-0.97243 0.916,0.4034 0.85161,-0.52588 -0.1006,0.99582 z"
         inkscape:transform-center-x="-0.032194249"
         inkscape:transform-center-y="0.11296056" />
      <path
         sodipodi:type="star"
         style="fill:#fb6800;fill-opacity:1;stroke-width:0.605999"
         id="path4787"
         inkscape:flatsided="false"
         sodipodi:sides="5"
         sodipodi:cx="79.325195"
         sodipodi:cy="156.63985"
         sodipodi:r1="1.4735948"
         sodipodi:r2="0.73679739"
         sodipodi:arg1="-1.0516502"
         sodipodi:arg2="-0.42333168"
         inkscape:rounded="0"
         inkscape:randomized="0"
         d="m 80.056303,155.36041 -0.05935,0.97676 0.770986,0.60263 -0.947296,0.24539 -0.33489,0.91948 -0.526111,-0.8251 -0.977959,-0.0344 0.622142,-0.75533 -0.269522,-0.94072 0.910615,0.35829 z"
         inkscape:transform-center-x="-0.049613697"
         inkscape:transform-center-y="0.092689697" />
      <path
         sodipodi:type="star"
         style="fill:#fb6800;fill-opacity:1;stroke-width:0.605999"
         id="path4789"
         inkscape:flatsided="false"
         sodipodi:sides="5"
         sodipodi:cx="57.940289"
         sodipodi:cy="150.6082"
         sodipodi:r1="1.3919877"
         sodipodi:r2="0.69599384"
         sodipodi:arg1="0.40489179"
         sodipodi:arg2="1.0332103"
         inkscape:rounded="0"
         inkscape:randomized="0"
         d="m 59.219727,151.15653 -0.923045,0.0495 -0.482519,0.78844 -0.332305,-0.86257 -0.898958,-0.21526 0.717669,-0.5826 -0.07307,-0.92147 0.775849,0.50251 0.853799,-0.35424 -0.238167,0.89316 z"
         inkscape:transform-center-x="0.038975603"
         inkscape:transform-center-y="0.095307036" />
      <path
         sodipodi:type="star"
         style="fill:#fb6800;fill-opacity:1;stroke-width:0.605999"
         id="path4791"
         inkscape:flatsided="false"
         sodipodi:sides="5"
         sodipodi:cx="26.868212"
         sodipodi:cy="155.90874"
         sodipodi:r1="1.3919877"
         sodipodi:r2="0.69599384"
         sodipodi:arg1="-1.1659045"
         sodipodi:arg2="-0.53758601"
         inkscape:rounded="0"
         inkscape:randomized="0"
         d="m 27.416543,154.6293 0.04949,0.92304 0.78844,0.48252 -0.862575,0.33231 -0.215261,0.89896 -0.582592,-0.71767 -0.921478,0.0731 0.502513,-0.77585 -0.354244,-0.85379 0.893162,0.23816 z"
         inkscape:transform-center-x="-0.095308595"
         inkscape:transform-center-y="0.038972909" />
      <path
         sodipodi:type="star"
         style="fill:#fb6800;fill-opacity:1;stroke-width:0.605999"
         id="path4793"
         inkscape:flatsided="false"
         sodipodi:sides="5"
         sodipodi:cx="38.931488"
         sodipodi:cy="140.00713"
         sodipodi:r1="1.226105"
         sodipodi:r2="0.61305249"
         sodipodi:arg1="0.46364761"
         sodipodi:arg2="1.0919661"
         inkscape:rounded="0"
         inkscape:randomized="0"
         d="m 40.02815,140.55546 -0.814203,-0.004 -0.465065,0.66833 -0.247584,-0.77566 -0.779329,-0.23578 0.661188,-0.47516 -0.01659,-0.81404 0.65622,0.48199 0.769078,-0.26733 -0.255622,0.77305 z"
         inkscape:transform-center-x="0.056429009"
         inkscape:transform-center-y="0.062108363" />
      <path
         sodipodi:type="star"
         style="fill:#ffffff;fill-opacity:1;stroke-width:0.605999"
         id="path4795"
         inkscape:flatsided="false"
         sodipodi:sides="5"
         sodipodi:cx="26.171671"
         sodipodi:cy="155.60835"
         sodipodi:r1="1.3814479"
         sodipodi:r2="0.69072396"
         sodipodi:arg1="-0.18822151"
         sodipodi:arg2="0.44009703"
         inkscape:rounded="0"
         inkscape:randomized="0"
         d="m 27.52872,155.34987 -0.732144,0.55275 0.04028,0.91649 -0.751945,-0.5255 -0.859183,0.32152 0.267417,-0.87753 -0.571285,-0.71778 0.917217,-0.0168 0.50611,-0.76513 0.299454,0.86712 z"
         inkscape:transform-center-x="-0.053619353"
         inkscape:transform-center-y="-0.079878415" />
      <path
         sodipodi:type="star"
         style="fill:#ffffff;fill-opacity:1;stroke-width:0.605999"
         id="path4797"
         inkscape:flatsided="false"
         sodipodi:sides="5"
         sodipodi:cx="39.095955"
         sodipodi:cy="139.58224"
         sodipodi:r1="1.011485"
         sodipodi:r2="0.50574255"
         sodipodi:arg1="0.46364761"
         sodipodi:arg2="1.0919661"
         inkscape:rounded="0"
         inkscape:randomized="0"
         d="m 40.000655,140.03459 -0.671684,-0.003 -0.383659,0.55134 -0.204246,-0.63989 -0.642913,-0.1945 0.545452,-0.39199 -0.01368,-0.67155 0.541354,0.39762 0.634457,-0.22053 -0.210877,0.63773 z"
         inkscape:transform-center-x="0.046551645"
         inkscape:transform-center-y="0.051236482" />
      <path
         sodipodi:type="star"
         style="fill:#ffffff;fill-opacity:1;stroke-width:0.605999"
         id="path4799"
         inkscape:flatsided="false"
         sodipodi:sides="5"
         sodipodi:cx="58.417751"
         sodipodi:cy="151.02023"
         sodipodi:r1="1.4876966"
         sodipodi:r2="0.74384838"
         sodipodi:arg1="0.60005021"
         sodipodi:arg2="1.2283687"
         inkscape:rounded="0"
         inkscape:randomized="0"
         d="m 59.645558,151.86031 -0.978041,-0.13941 -0.669315,0.72665 -0.169638,-0.97326 -0.897915,-0.41201 0.873199,-0.46209 0.114372,-0.98128 0.709306,0.68767 0.9686,-0.19446 -0.434823,0.88709 z"
         inkscape:transform-center-x="0.12964845"
         inkscape:transform-center-y="0.012991977" />
      <path
         sodipodi:type="star"
         style="fill:#ffffff;fill-opacity:1;stroke-width:0.605999"
         id="path4801"
         inkscape:flatsided="false"
         sodipodi:sides="5"
         sodipodi:cx="80.001305"
         sodipodi:cy="155.67297"
         sodipodi:r1="1.0217541"
         sodipodi:r2="0.51087713"
         sodipodi:arg1="-0.60554466"
         sodipodi:arg2="0.022773867"
         inkscape:rounded="0"
         inkscape:randomized="0"
         d="m 80.841383,155.09138 -0.329334,0.59323 0.301982,0.6076 -0.665962,-0.12989 -0.48455,0.47496 -0.08225,-0.67351 -0.60145,-0.31406 0.615127,-0.28636 0.112834,-0.66906 0.462422,0.49653 z"
         inkscape:transform-center-x="0.090706468"
         inkscape:transform-center-y="-0.007191947" />
      <path
         sodipodi:type="star"
         style="fill:#ffffff;fill-opacity:1;stroke-width:0.605999"
         id="path4803"
         inkscape:flatsided="false"
         sodipodi:sides="5"
         sodipodi:cx="104.04047"
         sodipodi:cy="143.20103"
         sodipodi:r1="1.4348282"
         sodipodi:r2="0.7174142"
         sodipodi:arg1="0.13552771"
         sodipodi:arg2="0.76384624"
         inkscape:rounded="0"
         inkscape:randomized="0"
         d="m 105.46214,143.3949 -0.90357,0.30237 -0.26316,0.91576 -0.56679,-0.7659 -0.95226,0.0327 0.55327,-0.77573 -0.32537,-0.89554 0.90873,0.28648 0.75117,-0.58619 0.008,0.95279 z"
         inkscape:transform-center-x="-0.078780923"
         inkscape:transform-center-y="0.059905537" />
      <path
         sodipodi:type="star"
         style="fill:#ffffff;fill-opacity:1;stroke-width:0.605999"
         id="path4805"
         inkscape:flatsided="false"
         sodipodi:sides="5"
         sodipodi:cx="127.23955"
         sodipodi:cy="141.77937"
         sodipodi:r1="1.1703435"
         sodipodi:r2="0.58517182"
         sodipodi:arg1="-0.11065722"
         sodipodi:arg2="0.51766131"
         inkscape:rounded="0"
         inkscape:randomized="0"
         d="m 128.40273,141.65013 -0.65468,0.41881 -0.0261,0.77675 -0.60063,-0.49322 -0.7468,0.21517 0.28347,-0.72365 -0.43541,-0.64376 0.77583,0.046 0.4777,-0.61303 0.19601,0.75206 z"
         inkscape:transform-center-x="-0.073089204"
         inkscape:transform-center-y="-0.039940013" />
      <path
         sodipodi:type="star"
         style="fill:#ffffff;fill-opacity:1;stroke-width:0.605999"
         id="path4807"
         inkscape:flatsided="false"
         sodipodi:sides="5"
         sodipodi:cx="169.43733"
         sodipodi:cy="143.6534"
         sodipodi:r1="1.3949845"
         sodipodi:r2="0.69749236"
         sodipodi:arg1="0.23374318"
         sodipodi:arg2="0.86206171"
         inkscape:rounded="0"
         inkscape:randomized="0"
         d="m 170.79438,143.9765 -0.90307,0.20642 -0.34192,0.86095 -0.47538,-0.79508 -0.92447,-0.0591 0.60927,-0.69781 -0.22944,-0.8975 0.85193,0.36382 0.78268,-0.49555 -0.0828,0.92266 z"
         inkscape:transform-center-x="-0.034625792"
         inkscape:transform-center-y="0.099843758" />
      <path
         sodipodi:type="star"
         style="fill:#ffffff;fill-opacity:1;stroke-width:0.605999"
         id="path4809"
         inkscape:flatsided="false"
         sodipodi:sides="5"
         sodipodi:cx="189.21149"
         sodipodi:cy="138.16057"
         sodipodi:r1="1.8209025"
         sodipodi:r2="0.91045135"
         sodipodi:arg1="0.47951929"
         sodipodi:arg2="1.1078378"
         inkscape:rounded="0"
         inkscape:randomized="0"
         d="m 190.82702,139.00065 -1.20893,-0.0255 -0.70634,0.98145 -0.34936,-1.15763 -1.15168,-0.36848 0.99301,-0.68999 -0.005,-1.20919 0.96307,0.7312 1.14833,-0.37884 -0.3978,1.14189 z"
         inkscape:transform-center-x="0.09262532"
         inkscape:transform-center-y="0.083417442"
         transform="translate(-0.90469974,1.6801567)" />
      <rect
         style="fill:#fbed00;fill-opacity:1;stroke-width:0.605999"
         id="rect4931"
         width="173.08977"
         height="22.664343"
         x="18.455116"
         y="137.16783" />
    </g>
  </g>
</svg>
